<svg xmlns="http://www.w3.org/2000/svg" width="17" height="16" viewBox="0 0 17 16">
    <g fill="none" fill-rule="evenodd">
        <g>
            <g>
                <g>
                    <g>
                        <path fill="#757575" fill-rule="nonzero" d="M9.721 0L6.605 0 6.266 2.035 5.272 2.234 3.491 0.962 1.288 3.165 2.526 4.897 2.1 5.929 0 6.279 0 9.395 2.089 9.743 2.532 10.93 1.288 12.672 3.491 14.875 5.248 13.62 6.26 13.93 6.605 16 9.721 16 10.063 13.947 11.393 13.611 13.162 14.875 15.365 12.672 14.127 10.939 14.553 9.908 16.653 9.558 16.653 6.442 14.564 6.094 14.121 4.906 15.365 3.165 13.162 0.962 11.373 2.239 10.058 2.023z" transform="translate(-253 -776) translate(15 273) translate(0 360) translate(238 143)"/>
                        <path fill="#FFF" d="M8.327 5.388c1.442 0 2.612 1.17 2.612 2.612 0 1.443-1.17 2.612-2.612 2.612-1.443 0-2.613-1.17-2.613-2.612 0-1.443 1.17-2.612 2.613-2.612zm0 .98c-.902 0-1.633.73-1.633 1.632 0 .902.73 1.633 1.633 1.633.901 0 1.632-.731 1.632-1.633s-.73-1.633-1.632-1.633z" transform="translate(-253 -776) translate(15 273) translate(0 360) translate(238 143)"/>
                    </g>
                </g>
            </g>
        </g>
    </g>
</svg>
